<svg width="100" height="100" viewBox="0 0 100 100" fill="none" xmlns="http://www.w3.org/2000/svg">
<g clip-path="url(#clip0_284_101)">
<path d="M49.9997 91.6666C26.9872 91.6666 8.33301 73.0124 8.33301 49.9999C8.33301 26.9874 26.9872 8.33325 49.9997 8.33325C73.0122 8.33325 91.6663 26.9874 91.6663 49.9999C91.6663 73.0124 73.0122 91.6666 49.9997 91.6666ZM29.1663 54.1666C29.1663 59.6919 31.3613 64.991 35.2683 68.898C39.1753 72.805 44.4743 74.9999 49.9997 74.9999C55.525 74.9999 60.8241 72.805 64.7311 68.898C68.6381 64.991 70.833 59.6919 70.833 54.1666H62.4997C62.4997 57.4818 61.1827 60.6612 58.8385 63.0054C56.4943 65.3496 53.3149 66.6666 49.9997 66.6666C46.6845 66.6666 43.505 65.3496 41.1608 63.0054C38.8166 60.6612 37.4997 57.4818 37.4997 54.1666H29.1663ZM33.333 45.8333C34.9906 45.8333 36.5803 45.1748 37.7524 44.0027C38.9245 42.8306 39.583 41.2409 39.583 39.5833C39.583 37.9256 38.9245 36.3359 37.7524 35.1638C36.5803 33.9917 34.9906 33.3333 33.333 33.3333C31.6754 33.3333 30.0857 33.9917 28.9136 35.1638C27.7415 36.3359 27.083 37.9256 27.083 39.5833C27.083 41.2409 27.7415 42.8306 28.9136 44.0027C30.0857 45.1748 31.6754 45.8333 33.333 45.8333ZM66.6663 45.8333C68.3239 45.8333 69.9137 45.1748 71.0858 44.0027C72.2579 42.8306 72.9163 41.2409 72.9163 39.5833C72.9163 37.9256 72.2579 36.3359 71.0858 35.1638C69.9137 33.9917 68.3239 33.3333 66.6663 33.3333C65.0087 33.3333 63.419 33.9917 62.2469 35.1638C61.0748 36.3359 60.4163 37.9256 60.4163 39.5833C60.4163 41.2409 61.0748 42.8306 62.2469 44.0027C63.419 45.1748 65.0087 45.8333 66.6663 45.8333Z" fill="#014289"/>
</g>
<defs>
<clipPath id="clip0_284_101">
<rect width="100" height="100" fill="white"/>
</clipPath>
</defs>
</svg>
