<svg width="100" height="100" viewBox="0 0 100 100" fill="none" xmlns="http://www.w3.org/2000/svg">
<g clip-path="url(#clip0_284_140)">
<path d="M58.8375 43.6666C58.0561 42.8855 56.9965 42.4467 55.8916 42.4467C54.7868 42.4467 53.7272 42.8855 52.9458 43.6666L50 46.6083C49.2313 47.4042 48.3117 48.039 47.295 48.4758C46.2783 48.9125 45.1848 49.1424 44.0783 49.152C42.9718 49.1616 41.8745 48.9508 40.8504 48.5318C39.8262 48.1128 38.8958 47.494 38.1133 46.7116C37.3309 45.9291 36.7121 44.9987 36.2931 43.9745C35.8741 42.9504 35.6633 41.8531 35.6729 40.7466C35.6825 39.6401 35.9124 38.5466 36.3491 37.5299C36.7859 36.5132 37.4207 35.5937 38.2166 34.8249L61.675 11.3583C67.2288 10.095 73.0396 10.6149 78.281 12.844C83.5224 15.0731 87.9276 18.8978 90.8703 23.7745C93.813 28.6511 95.1433 34.3314 94.6722 40.0076C94.201 45.6837 91.9523 51.0669 88.2458 55.3916L79.4625 64.2874L58.8375 43.6624V43.6666ZM13.1708 18.6166C17.4823 14.3057 23.1217 11.5748 29.1773 10.8656C35.2329 10.1564 41.3507 11.5102 46.5416 14.7083L32.3208 28.9333C29.2408 32.0071 27.4851 36.1637 27.4289 40.5148C27.3727 44.8658 29.0203 49.0664 32.0199 52.2188C35.0194 55.3712 39.1329 57.2256 43.4814 57.3855C47.8299 57.5455 52.0686 55.9984 55.2916 53.0749L55.8916 52.5041L73.5708 70.1791L55.8916 87.8583C54.3289 89.4205 52.2097 90.2981 50 90.2981C47.7903 90.2981 45.671 89.4205 44.1083 87.8583L13.1666 56.9166C8.08802 51.8376 5.23492 44.9492 5.23492 37.7666C5.23492 30.584 8.08802 23.6956 13.1666 18.6166H13.1708Z" fill="#014289"/>
</g>
<defs>
<clipPath id="clip0_284_140">
<rect width="100" height="100" fill="white"/>
</clipPath>
</defs>
</svg>
