<svg width="47" height="30" viewBox="0 0 47 30" fill="none" xmlns="http://www.w3.org/2000/svg">
<path d="M46.8111 14.0559L39.2831 0.734571C39.0269 0.281987 38.5465 0 38.0302 0C37.77 0 37.5145 0.0715839 37.2916 0.207393L34.2336 2.06456C33.5608 2.47232 33.3322 3.36545 33.721 4.05452L34.1456 4.80582C33.5769 4.99415 33.0254 5.10687 32.5742 5.06907C32.0844 5.0286 31.4512 4.88041 30.718 4.70881C29.443 4.4101 27.8557 4.03847 26.1295 4.03847H26.0083C23.4746 4.06289 19.0798 4.3034 18.123 5.64476C17.9981 5.82004 17.8464 6.02776 17.6856 6.24854C17.4331 6.20639 17.1642 6.16558 16.8731 6.12276C16.0332 5.999 14.8837 5.82974 14.4818 5.60261C14.1502 5.41529 13.5462 5.04533 12.9342 4.66366L13.2786 4.05452C13.6684 3.36478 13.4388 2.47132 12.7677 2.06489L9.70832 0.206724C9.48574 0.0715839 9.22959 0 8.97009 0C8.45275 0 7.97167 0.281987 7.71653 0.73524L0.189479 14.0572C-0.198943 14.7463 0.0306858 15.6387 0.701107 16.0468L3.76047 17.9047C3.98305 18.0398 4.23819 18.1107 4.4977 18.1107C5.0147 18.1107 5.49611 17.8287 5.75193 17.3755L6.35689 16.3047L6.90477 16.9115C6.99105 17.0186 7.50503 17.6561 8.20701 18.5302L7.99719 18.8135C7.219 19.8679 7.49059 21.4678 8.60181 22.3807C9.04562 22.7456 9.57874 22.9627 10.1192 23.0055C10.0585 23.8528 10.4234 24.7577 11.1593 25.3628C11.6561 25.7709 12.2641 25.9957 12.8714 25.9957C13.0245 25.9957 13.1729 25.9783 13.3183 25.9512C13.4593 26.5268 13.7876 27.0754 14.2881 27.4862C14.7863 27.8956 15.3947 28.1201 16.003 28.1201C16.2598 28.1201 16.5072 28.0783 16.7389 28.0027C16.9 28.5155 17.2102 28.9985 17.6607 29.3678C18.1589 29.7755 18.7672 30.0007 19.3742 30.0007C20.1118 30.0007 20.7778 29.6729 21.2008 29.1002L21.5792 28.5897C23.1601 29.137 24.1427 29.325 24.3398 29.3594C24.5204 29.4032 25.1596 29.5447 25.9082 29.5447C26.5041 29.5447 27.1682 29.4554 27.7254 29.1557C28.5493 28.7142 29.1388 27.9746 29.4537 27.5026C29.9851 27.53 30.812 27.4936 31.4136 27.1005C32.2045 26.5844 32.4859 25.6869 32.5819 25.0329C33.1543 25.0082 33.9106 24.8854 34.4394 24.4589C35.1716 23.8659 35.4062 23.0918 35.4586 22.4666C36.3795 22.5299 37.4853 22.2693 38.1185 21.1146C38.5824 20.2649 38.5798 19.3802 38.1386 18.5807C38.4965 18.375 38.9269 18.0843 39.3902 17.6658C39.6937 17.3925 39.9122 17.1637 40.1059 16.9617C40.2973 16.7617 40.4688 16.5847 40.6924 16.3927L41.2473 17.3748C41.5042 17.8294 41.9846 18.1111 42.5009 18.1111C42.7611 18.1111 43.0166 18.0391 43.2395 17.9033L46.2988 16.0455C46.9703 15.6394 47.1989 14.7473 46.8101 14.0565L46.8111 14.0559ZM34.9973 3.3146L38.0188 1.47951L45.5354 14.7958L42.514 16.6309L34.9973 3.3146ZM39.0427 15.9512C38.8584 16.1438 38.6684 16.3429 38.4038 16.5807C37.8989 17.038 37.442 17.3052 37.1452 17.4517C37.1422 17.4531 37.1382 17.4558 37.1352 17.4571L36.3899 16.8453L36.3771 16.8349C36.3318 16.7971 35.6651 16.2405 34.2564 15.2012C33.2976 14.4927 31.9961 13.5625 30.2997 12.4114C30.0808 12.2633 29.3587 11.799 29.2268 11.7173C26.724 10.1602 23.6613 8.63322 23.5132 8.55963C23.4108 8.50845 23.298 8.48235 23.1856 8.48235C23.1107 8.48235 23.0358 8.49373 22.9627 8.51581L21.0424 9.1246C20.8732 9.17812 20.7285 9.29252 20.6362 9.44405C20.6197 9.47115 18.9482 12.1736 16.476 12.3643C16.3575 12.376 16.2487 12.3823 16.1473 12.3823C15.8895 12.3823 15.7945 12.3382 15.7898 12.3422C15.7797 12.3164 15.7196 12.1251 15.8838 11.5364C16.381 10.5616 19.0449 6.87506 19.202 6.65697C19.2406 6.60345 19.2852 6.5429 19.3212 6.49339C19.6576 6.04382 22.3151 5.53772 26.023 5.50259H26.1305C27.6852 5.50226 29.1183 5.83777 30.3819 6.1338C31.1729 6.31811 31.8544 6.47834 32.453 6.52751C33.1875 6.58906 34.0486 6.38736 34.8728 6.09098L39.9612 15.0958C39.9189 15.129 39.27 15.7143 39.0434 15.9508L39.0427 15.9512ZM4.48629 16.6319L1.46922 14.7744L8.9815 1.47985L11.9986 3.33768L4.48629 16.6319ZM20.0195 28.2321C19.8231 28.4984 19.531 28.5375 19.3749 28.5375C19.1073 28.5375 18.8297 28.4312 18.5947 28.2388C18.2452 27.9522 18.0632 27.528 18.0814 27.1497C18.0898 26.9737 18.1371 26.8075 18.2378 26.671C18.2378 26.671 18.238 26.6708 18.2385 26.6703L18.3657 26.4977L18.8236 25.8792L19.7646 24.6068C19.9617 24.3399 20.2545 24.3004 20.4109 24.3004C20.6785 24.3004 20.9554 24.4068 21.1911 24.5994C21.7027 25.0186 21.8652 25.7371 21.5476 26.1679L21.0541 26.8346L20.1511 28.0542L20.0198 28.2318L20.0195 28.2321ZM16.0033 26.6576C15.7354 26.6576 15.4581 26.5513 15.2224 26.3576C14.9025 26.0957 14.7189 25.717 14.7041 25.3648C14.6997 25.2467 14.7179 25.1343 14.7514 25.0273C14.7786 24.9426 14.8139 24.8607 14.8672 24.7891L15.398 24.0712L17.4106 21.3501C17.4694 21.2704 17.5362 21.2129 17.6057 21.1694C17.7695 21.0651 17.9464 21.0437 18.0559 21.0437C18.3234 21.0437 18.6001 21.15 18.8347 21.342C19.3467 21.7618 19.5102 22.4807 19.1916 22.9115L17.4828 25.2216L16.6479 26.3512C16.6314 26.374 16.6133 26.3924 16.5952 26.4121C16.4018 26.6228 16.1463 26.658 16.0033 26.658V26.6576ZM11.6444 22.8296C11.6689 22.7714 11.6988 22.7152 11.737 22.6637L12.4917 21.6434L12.5287 21.5942L13.1598 20.7409C13.1622 20.7379 13.1638 20.7346 13.1658 20.7319L14.8911 18.3991C15.0892 18.1325 15.3816 18.093 15.5387 18.093C15.8062 18.093 16.0822 18.199 16.3182 18.3927C16.8308 18.8115 16.993 19.5297 16.6747 19.9619L16.5371 20.1475C16.4246 20.2475 16.3199 20.3576 16.2286 20.4814L14.1888 23.2397L13.6855 23.9197C13.6003 24.0345 13.5294 24.1572 13.4693 24.2833C13.4186 24.3378 13.3649 24.3817 13.3092 24.4151C13.1491 24.5115 12.9789 24.5319 12.8718 24.5319C12.6049 24.5319 12.3282 24.4265 12.0942 24.2342C11.6437 23.8632 11.4638 23.2621 11.6447 22.8292L11.6444 22.8296ZM9.15943 19.719C9.16749 19.707 9.17152 19.6933 9.18024 19.6816L10.0581 18.4947L10.1954 18.3094C10.3928 18.0428 10.6856 18.0037 10.8424 18.0037C11.1103 18.0037 11.3862 18.1097 11.6226 18.3031C12.1335 18.7209 12.2963 19.4354 11.9814 19.8669C11.9801 19.8685 11.9794 19.8709 11.9788 19.8722L11.5843 20.4047L11.4745 20.5523L10.9619 21.245C10.8534 21.3915 10.7165 21.4685 10.5889 21.5093C10.4842 21.5424 10.3858 21.5514 10.3156 21.5514C10.0481 21.5514 9.77177 21.4457 9.53644 21.2524C9.03891 20.844 8.87474 20.1529 9.15943 19.7194V19.719ZM36.8297 20.4138C36.4282 21.1487 35.5882 21.05 35.1709 20.9473L28.2502 16.8065C27.9024 16.5991 27.4498 16.7105 27.2427 17.0577C27.0339 17.4032 27.1467 17.8538 27.4945 18.0615L33.9949 21.9505C34.0295 22.2786 34.0201 22.9139 33.5158 23.3226C33.2506 23.536 32.5721 23.5906 32.1122 23.5682L26.2658 20.1967C25.9143 19.994 25.4654 20.1134 25.2623 20.4636C25.0592 20.8132 25.179 21.2611 25.5305 21.4631L31.1417 24.6991C31.0974 25.0932 30.9654 25.6468 30.6102 25.8782C30.3061 26.0776 29.5947 26.0739 29.1895 26.0084C29.1636 26.004 29.1385 26.0094 29.1126 26.0077L24.2303 23.6585C23.8647 23.4822 23.4249 23.6361 23.2494 23.999C23.0731 24.3629 23.2255 24.8008 23.5915 24.9764L27.951 27.0741C27.7181 27.3574 27.4045 27.6675 27.0308 27.8679C26.3453 28.2355 25.0944 28.0405 24.6728 27.9348C24.6513 27.9291 24.6298 27.9251 24.6083 27.9211C24.5946 27.9191 23.8308 27.7893 22.496 27.3527L22.729 27.038C23.5079 25.9826 23.2363 24.3827 22.1234 23.4708C21.7245 23.144 21.2549 22.9369 20.7718 22.867C20.9534 21.9395 20.5922 20.8891 19.769 20.2134C19.3366 19.8585 18.8203 19.6427 18.2939 19.5926C18.3456 18.7516 17.9803 17.8608 17.2515 17.2648C16.755 16.856 16.1463 16.6312 15.538 16.6312C14.8004 16.6312 14.134 16.9587 13.709 17.5317L13.2944 18.092C13.1188 17.7491 12.8728 17.4327 12.5555 17.1734C12.0583 16.7657 11.4497 16.5409 10.8424 16.5409C10.1599 16.5409 9.54114 16.8246 9.11512 17.3206C8.48129 16.5319 8.04721 15.9936 8.03646 15.9806C8.02774 15.9702 8.01934 15.9602 8.00994 15.9502L7.11694 14.961L12.2131 5.94213C12.8197 6.31945 13.4156 6.68473 13.7587 6.87774C14.3986 7.23934 15.5481 7.4086 16.6596 7.57183C16.6791 7.57518 16.6986 7.57786 16.718 7.58087C15.8865 8.73591 14.9999 10.0201 14.5382 10.9463C14.5188 10.9848 14.503 11.0253 14.4909 11.0671C14.3116 11.6829 14.1283 12.577 14.6128 13.2203C14.927 13.6367 15.4433 13.8478 16.1473 13.8478C16.2937 13.8478 16.4528 13.8391 16.6062 13.8237C19.3524 13.6123 21.2018 11.2233 21.7376 10.4419L23.1218 10.003C23.9372 10.4175 26.4809 11.7294 28.5392 13.0156C28.6043 13.057 29.4154 13.5822 29.4738 13.6217C31.241 14.8222 32.5849 15.7876 33.5467 16.5014C34.1943 16.9931 34.8664 17.511 35.4093 17.9378C35.4257 17.9515 35.4358 17.9592 35.4371 17.9602L36.4879 18.8235C37.1959 19.5063 37.0251 20.0572 36.83 20.4141L36.8297 20.4138Z" fill="#014289"/>
</svg>
