<svg width="34" height="24" viewBox="0 0 34 24" fill="none" xmlns="http://www.w3.org/2000/svg">
<path d="M10.78 7.684C10.972 7.652 11.18 7.624 11.404 7.6C11.636 7.568 11.868 7.544 12.1 7.528C12.332 7.512 12.556 7.5 12.772 7.492C12.996 7.484 13.2 7.48 13.384 7.48C13.808 7.48 14.224 7.516 14.632 7.588C15.048 7.66 15.416 7.784 15.736 7.96C16.064 8.136 16.328 8.38 16.528 8.692C16.728 8.996 16.828 9.38 16.828 9.844C16.828 10.532 16.656 11.1 16.312 11.548C15.976 11.988 15.508 12.288 14.908 12.448L15.544 12.82L17.644 16H15.58L13.492 12.748L12.556 12.604V16H10.78V7.684ZM13.504 9.04C13.32 9.04 13.14 9.044 12.964 9.052C12.796 9.052 12.66 9.064 12.556 9.088V11.404H13.312C13.816 11.404 14.212 11.308 14.5 11.116C14.796 10.924 14.944 10.592 14.944 10.12C14.944 9.768 14.82 9.5 14.572 9.316C14.324 9.132 13.968 9.04 13.504 9.04ZM20.3721 9.7V13.192C20.3721 13.712 20.4441 14.092 20.5881 14.332C20.7321 14.572 21.0081 14.692 21.4161 14.692C21.7681 14.692 22.0641 14.6 22.3041 14.416C22.5441 14.232 22.7201 14 22.8321 13.72V9.7H24.5121V14.08C24.5121 14.416 24.5281 14.752 24.5601 15.088C24.6001 15.424 24.6521 15.728 24.7161 16H23.4801L23.1561 15.016H23.0241C22.8161 15.352 22.5201 15.632 22.1361 15.856C21.7521 16.072 21.3121 16.18 20.8161 16.18C20.4721 16.18 20.1681 16.136 19.9041 16.048C19.6401 15.96 19.4161 15.816 19.2321 15.616C19.0561 15.408 18.9201 15.136 18.8241 14.8C18.7361 14.464 18.6921 14.048 18.6921 13.552V9.7H20.3721Z" fill="#014289"/>
<rect x="1" y="1" width="32" height="22" rx="4" stroke="#014289" stroke-width="2"/>
</svg>
