<svg width="25" height="25" viewBox="0 0 25 25" fill="none" xmlns="http://www.w3.org/2000/svg">
<path d="M10.0112 6.78898L7.76883 9.02151C7.79301 9.21507 7.8449 9.48169 7.95364 9.8156C8.25583 10.7436 9.01501 12.2445 10.9307 14.1602C12.8377 16.0672 14.3216 16.7666 15.2238 17.0225C15.5714 17.1211 15.8431 17.157 16.0321 17.1677L18.2133 14.9866C19.0624 14.1375 20.4391 14.1375 21.2882 14.9866L24.3632 18.0615C25.2123 18.9107 25.2123 20.2874 24.3632 21.1365L21.3243 24.1754C20.6467 24.8529 19.6056 25.2061 18.5643 24.873C16.7366 24.2883 12.3871 22.4852 7.45095 17.549C2.51476 12.6129 0.711671 8.26344 0.126993 6.43567C-0.206099 5.39439 0.147108 4.35325 0.824632 3.67573L3.86351 0.636842C4.71264 -0.21228 6.08934 -0.212281 6.93846 0.636842L10.0134 3.71179C10.8625 4.56091 10.8625 5.93761 10.0134 6.78674L10.0112 6.78898Z" fill="white"/>
</svg>
