<svg width="34" height="34" viewBox="0 0 34 34" fill="none" xmlns="http://www.w3.org/2000/svg">
<path d="M28.3334 10.6673C28.3334 11.0815 28.12 11.4665 27.7687 11.6861L17 18.4165L6.23133 11.6861C5.88009 11.4665 5.66671 11.0815 5.66671 10.6673V10.6673C5.66671 9.72377 6.7046 9.14852 7.50474 9.64861L17 15.5832L26.4953 9.64861C27.2955 9.14852 28.3334 9.72377 28.3334 10.6673V10.6673ZM28.3334 5.6665H5.66671C4.09421 5.6665 2.83337 6.92734 2.83337 8.49984V25.4998C2.83337 26.2513 3.13188 26.972 3.66324 27.5033C4.19459 28.0347 4.91526 28.3332 5.66671 28.3332H28.3334C29.0848 28.3332 29.8055 28.0347 30.3368 27.5033C30.8682 26.972 31.1667 26.2513 31.1667 25.4998V8.49984C31.1667 6.92734 29.8917 5.6665 28.3334 5.6665Z" fill="#014289"/>
</svg>
