<svg width="102" height="102" viewBox="0 0 102 102" fill="none" xmlns="http://www.w3.org/2000/svg">
<g clip-path="url(#clip0_391_583)">
<path d="M51 0C22.8744 0 0 22.8744 0 51C0 79.1256 22.8744 102 51 102C79.1256 102 102 79.1256 102 51C102 22.8744 79.1256 0 51 0ZM51 98.2222C24.9522 98.2222 3.77778 77.0478 3.77778 51C3.77778 24.9522 24.9522 3.77778 51 3.77778C77.0478 3.77778 98.2222 24.9522 98.2222 51C98.2222 77.0478 77.0478 98.2222 51 98.2222Z" fill="#FFEE80"/>
<path d="M51 33.6788C41.4611 33.6788 33.6789 41.4422 33.6789 50.9999C33.6789 60.5577 41.4422 68.3211 51 68.3211C60.5578 68.3211 68.3211 60.5577 68.3211 50.9999C68.3211 41.4422 60.5578 33.6788 51 33.6788ZM51 64.5244C43.5389 64.5244 37.4567 58.4422 37.4567 50.9811C37.4567 43.5199 43.52 37.4377 51 37.4377C58.48 37.4377 64.5433 43.5011 64.5433 50.9811C64.5433 58.4611 58.48 64.5244 51 64.5244Z" fill="#FFEE80"/>
<path d="M91.9133 39.9689C91.6489 39.5534 91.4033 39.1378 91.1578 38.7411C90.4211 37.5134 89.7411 36.3423 89.25 35.1711C88.5511 33.5089 88.1166 31.6389 87.6444 29.6556C87.2855 28.1823 86.9266 26.69 86.4544 25.2545C85.6989 22.9689 84.6789 20.8156 82.9411 19.0778C80.1078 16.2445 76.16 15.3 72.3444 14.3745C70.3611 13.9023 68.4911 13.4489 66.8289 12.7689C65.2611 12.1267 63.6933 11.1445 62.0311 10.1056C58.6689 8.00892 55.1744 5.85559 51 5.85559C50.3577 5.85559 49.7344 5.91226 49.13 6.0067C45.7489 6.5167 42.8211 8.33004 39.9689 10.1056C38.3066 11.1445 36.72 12.1267 35.1522 12.7689C33.49 13.4678 31.62 13.9023 29.6366 14.3745C25.8211 15.3 21.8733 16.2445 19.04 19.0778C16.2066 21.9111 15.2622 25.8589 14.3366 29.6745C13.8644 31.6578 13.4111 33.5278 12.7311 35.19C12.0889 36.7578 11.1066 38.3256 10.0677 40.0067C7.97108 43.3689 5.81775 46.8634 5.81775 51.0378C5.81775 55.2123 7.98997 58.7067 10.0677 62.0689C11.1066 63.7311 12.0889 65.3178 12.7311 66.8856C13.4111 68.5478 13.8644 70.4178 14.3366 72.4012C15.2622 76.2167 16.2066 80.1645 19.04 82.9978C21.8733 85.8311 25.8211 86.7756 29.6366 87.7011C31.62 88.1734 33.49 88.6267 35.1522 89.3067C36.72 89.9489 38.2878 90.9312 39.9689 91.97C43.3311 94.0667 46.8255 96.22 51 96.22C55.1744 96.22 58.6689 94.0478 62.0311 91.97C63.6933 90.9312 65.28 89.9489 66.8289 89.3067C68.4911 88.6267 70.3611 88.1734 72.3444 87.7011C76.16 86.7756 80.1078 85.8311 82.9411 82.9978C85.7744 80.1645 86.7189 76.2167 87.6444 72.4012C88.1166 70.4178 88.57 68.5478 89.2689 66.8856C89.9111 65.3178 90.8933 63.75 91.9322 62.0689C94.0289 58.7067 96.1822 55.2123 96.1822 51.0378C96.1822 46.8634 94.01 43.3689 91.9322 40.0067L91.9133 39.9689ZM83.9611 71.4756C83.13 74.9323 82.3366 78.2 80.2589 80.2778C78.1811 82.3556 74.9133 83.1489 71.4566 83.98C69.4166 84.4712 67.32 84.9812 65.3933 85.7745C63.5422 86.5489 61.7666 87.6445 60.0478 88.7212C56.9878 90.61 54.1166 92.4045 51 92.4045C47.8833 92.4045 45.0122 90.61 41.9522 88.7212C40.2333 87.6445 38.4389 86.5489 36.5878 85.7745C34.6611 84.9812 32.5455 84.4712 30.5244 83.98C27.0677 83.1489 23.8 82.3556 21.7222 80.2778C19.6444 78.2 18.8511 74.9323 18.02 71.4756C17.5289 69.4356 17.0189 67.3389 16.2255 65.4123C15.4511 63.5611 14.3555 61.7856 13.2789 60.0478C11.39 56.9878 9.59553 54.1167 9.59553 51C9.59553 47.8834 11.39 45.0123 13.2789 41.9523C14.3555 40.2334 15.4511 38.4389 16.2255 36.5878C17.0189 34.6423 17.5289 32.5456 18.02 30.5056C18.8511 27.0489 19.6444 23.7811 21.7222 21.7034C23.8 19.6256 27.0677 18.8323 30.5244 18.0011C32.5644 17.51 34.6611 17 36.5878 16.2067C37.7589 15.7156 38.9111 15.0923 40.0444 14.4123C40.6866 14.0345 41.3289 13.6378 41.9522 13.26C42.7833 12.75 43.5955 12.24 44.3889 11.7867C46.5611 10.54 48.7144 9.5767 50.9811 9.5767C54.0978 9.5767 56.9689 11.3711 60.0289 13.26C61.7478 14.3367 63.5233 15.4323 65.3744 16.2067C67.3011 17 69.4166 17.51 71.4377 18.0011C73.5911 18.53 75.6878 19.0211 77.4444 19.8334C78.5022 20.3245 79.4466 20.91 80.24 21.7034C82.3178 23.7811 83.1111 27.0489 83.9422 30.5056C84.0555 30.94 84.15 31.3934 84.2633 31.8278C84.66 33.4334 85.1133 35.0578 85.7366 36.5878C86.3033 37.9667 87.0778 39.3267 87.8711 40.63C88.1355 41.0645 88.4 41.4989 88.6833 41.9334C90.5722 44.9934 92.3666 47.8645 92.3666 50.9811C92.3666 54.0978 90.5722 56.9689 88.6833 60.0289C87.6066 61.7478 86.5111 63.5423 85.7366 65.3745C84.9433 67.32 84.4333 69.4167 83.9422 71.4567L83.9611 71.4756Z" fill="#FFEE80"/>
<path d="M35.657 24.9438L28.4178 32.183L31.0891 34.8543L38.3283 27.6151L35.657 24.9438Z" fill="#FFEE80"/>
<path d="M31.5613 64.3093L24.3221 71.5485L26.9934 74.2198L34.2326 66.9806L31.5613 64.3093Z" fill="#FFEE80"/>
<path d="M20.3765 43.5252L17.7052 46.1965L24.9444 53.4357L27.6157 50.7644L20.3765 43.5252Z" fill="#FFEE80"/>
<path d="M57.0637 73.4315L49.8245 80.6707L52.4958 83.3419L59.735 76.1027L57.0637 73.4315Z" fill="#FFEE80"/>
<path d="M83.501 45.7352L76.2618 52.9744L78.9331 55.6457L86.1723 48.4065L83.501 45.7352Z" fill="#FFEE80"/>
<path d="M72.0185 63.3574L69.3472 66.0287L76.5864 73.2679L79.2577 70.5966L72.0185 63.3574Z" fill="#FFEE80"/>
<path d="M77.5222 29.0521L70.283 36.2913L72.9543 38.9626L80.1935 31.7233L77.5222 29.0521Z" fill="#FFEE80"/>
<path d="M56.5919 18.9742L53.9206 21.6455L61.1598 28.8847L63.8311 26.2134L56.5919 18.9742Z" fill="#FFEE80"/>
</g>
<defs>
<clipPath id="clip0_391_583">
<rect width="102" height="102" fill="white"/>
</clipPath>
</defs>
</svg>
