<svg width="35" height="35" viewBox="0 0 35 35" fill="none" xmlns="http://www.w3.org/2000/svg">
<rect width="35" height="35" rx="6" fill="#2787F5"/>
<path fill-rule="evenodd" clip-rule="evenodd" d="M27.7124 12.4604C27.8603 11.9977 27.7124 11.6577 27.0085 11.6577H24.6807C24.0888 11.6577 23.8159 11.9514 23.668 12.2753C23.668 12.2753 22.4842 14.9819 20.8073 16.7401C20.2647 17.249 20.0181 17.4109 19.7222 17.4109C19.5742 17.4109 19.36 17.249 19.36 16.7864V12.4604C19.36 11.9052 19.1883 11.6577 18.695 11.6577H15.0371C14.6672 11.6577 14.4447 11.9154 14.4447 12.1596C14.4447 12.686 15.2832 12.8073 15.3696 14.2879V17.5035C15.3696 18.2085 15.2339 18.3363 14.9379 18.3363C14.1488 18.3363 12.2292 15.6176 11.0908 12.5066C10.8677 11.902 10.6439 11.6577 10.049 11.6577H7.7212C7.05612 11.6577 6.9231 11.9514 6.9231 12.2753C6.9231 12.8536 7.71226 15.7222 10.5976 19.5161C12.5211 22.1071 15.2313 23.5116 17.6974 23.5116C19.177 23.5116 19.3601 23.1996 19.3601 22.6623V20.7041C19.3601 20.0802 19.5002 19.9557 19.9688 19.9557C20.314 19.9557 20.9059 20.1176 22.287 21.3668C23.8652 22.8474 24.1255 23.5116 25.0132 23.5116H27.341C28.0061 23.5116 28.3386 23.1996 28.1468 22.584C27.9369 21.9705 27.1833 21.0803 26.1834 20.0251C25.6408 19.4236 24.827 18.7759 24.5804 18.4519C24.2352 18.0356 24.3338 17.8505 24.5804 17.4804C24.5804 17.4804 27.4165 13.7327 27.7124 12.4604Z" fill="white"/>
</svg>
