<svg width="35" height="35" viewBox="0 0 35 35" fill="none" xmlns="http://www.w3.org/2000/svg">
<rect width="35" height="35" rx="6" fill="#FF0000"/>
<path d="M27.2346 12.6859C27.0061 11.8268 26.3301 11.1491 25.47 10.9168C23.9149 10.5 17.6754 10.5 17.6754 10.5C17.6754 10.5 11.439 10.5 9.88072 10.9168C9.02382 11.1459 8.34782 11.8236 8.11614 12.6859C7.70038 14.245 7.70038 17.5 7.70038 17.5C7.70038 17.5 7.70038 20.755 8.11614 22.3141C8.34464 23.1732 9.02065 23.8509 9.88072 24.0832C11.439 24.5 17.6754 24.5 17.6754 24.5C17.6754 24.5 23.9149 24.5 25.47 24.0832C26.3269 23.8541 27.0029 23.1764 27.2346 22.3141C27.6504 20.755 27.6504 17.5 27.6504 17.5C27.6504 17.5 27.6504 14.245 27.2346 12.6859Z" fill="white"/>
<path d="M15.6823 20.5005L20.865 17.5L15.6823 14.4995V20.5005Z" fill="#FF0000"/>
</svg>
